<svg xmlns="http://www.w3.org/2000/svg" viewBox="0 0 1440 320"><path fill="#0099ff" fill-opacity="1" d="M0,0L16,37.3C32,75,64,149,96,170.7C128,192,160,160,192,133.3C224,107,256,85,288,74.7C320,64,352,64,384,74.7C416,85,448,107,480,128C512,149,544,171,576,186.7C608,203,640,213,672,218.7C704,224,736,224,768,197.3C800,171,832,117,864,128C896,139,928,213,960,202.7C992,192,1024,96,1056,80C1088,64,1120,128,1152,133.3C1184,139,1216,85,1248,85.3C1280,85,1312,139,1344,154.7C1376,171,1408,149,1424,138.7L1440,128L1440,320L1424,320C1408,320,1376,320,1344,320C1312,320,1280,320,1248,320C1216,320,1184,320,1152,320C1120,320,1088,320,1056,320C1024,320,992,320,960,320C928,320,896,320,864,320C832,320,800,320,768,320C736,320,704,320,672,320C640,320,608,320,576,320C544,320,512,320,480,320C448,320,416,320,384,320C352,320,320,320,288,320C256,320,224,320,192,320C160,320,128,320,96,320C64,320,32,320,16,320L0,320Z"></path></svg>